<svg width="34" height="34" viewBox="0 0 34 34" fill="none" xmlns="http://www.w3.org/2000/svg">
<rect width="34" height="34" rx="17" fill="#F3F4F6"/>
<path d="M25.19 19.06L24.06 17.18C23.81 16.77 23.59 15.98 23.59 15.5V13.63C23.59 10 20.64 7.05005 17.02 7.05005C13.39 7.06005 10.44 10 10.44 13.63V15.49C10.44 15.97 10.22 16.76 9.98002 17.17L8.85002 19.05C8.42002 19.78 8.32002 20.61 8.59002 21.33C8.86002 22.06 9.47002 22.64 10.27 22.9C11.35 23.26 12.44 23.52 13.55 23.71C13.66 23.73 13.77 23.74 13.88 23.76C14.02 23.7801 14.17 23.8 14.32 23.82C14.58 23.8601 14.84 23.89 15.11 23.91C15.74 23.97 16.38 24 17.02 24C17.65 24 18.28 23.97 18.9 23.91C19.13 23.89 19.36 23.8701 19.58 23.84C19.76 23.82 19.94 23.8001 20.12 23.7701C20.23 23.76 20.34 23.74 20.45 23.72C21.57 23.54 22.68 23.26 23.76 22.9C24.53 22.64 25.12 22.06 25.4 21.32C25.68 20.57 25.6 19.75 25.19 19.06ZM17.75 15C17.75 15.42 17.41 15.76 16.99 15.76C16.57 15.76 16.23 15.42 16.23 15V11.9C16.23 11.48 16.57 11.14 16.99 11.14C17.41 11.14 17.75 11.48 17.75 11.9V15Z" fill="#4B5563"/>
<path d="M19.83 25.01C19.41 26.17 18.3 27 17 27C16.21 27 15.43 26.68 14.88 26.11C14.56 25.81 14.32 25.41 14.18 25C14.31 25.02 14.44 25.03 14.58 25.05C14.81 25.08 15.05 25.11 15.29 25.13C15.86 25.18 16.44 25.21 17.02 25.21C17.59 25.21 18.16 25.18 18.72 25.13C18.93 25.11 19.14 25.1 19.34 25.07C19.5 25.05 19.66 25.03 19.83 25.01Z" fill="#4B5563"/>
<circle cx="22.5" cy="10.5" r="2.35" fill="#EF0000" stroke="white" stroke-width="0.3"/>
</svg>
