<svg width="15" height="19" viewBox="0 0 15 19" fill="none" xmlns="http://www.w3.org/2000/svg">
<path d="M8.27281 16.5121L13.5616 13.5289M5.37497 5.18865L11.1064 14.9138M7.7599 3.45696C7.84684 3.60679 7.79036 3.80117 7.63375 3.89113L2.88403 6.61953C2.72742 6.7095 2.52999 6.66097 2.44305 6.51114C0.482906 3.13323 1.75827 1.84058 2.8976 1.18611C4.03692 0.531641 5.79649 0.0734165 7.7599 3.45696ZM7.91732 3.72825L13.4807 13.3156C13.5484 13.4323 13.5813 13.5661 13.5741 13.7007C13.4824 15.3998 13.248 16.8887 13.0925 17.7343C13.0187 18.1358 12.6122 18.3714 12.2249 18.2368C11.4072 17.9527 9.98581 17.4159 8.4526 16.6428C8.33163 16.5818 8.23153 16.4864 8.16373 16.3696L2.60047 6.78242L7.91732 3.72825Z" stroke="#F1F2F6" stroke-linecap="round"/>
</svg>
