<svg width="27" height="27" viewBox="0 0 27 27" fill="none" xmlns="http://www.w3.org/2000/svg">
<circle cx="13.5" cy="13.5" r="13.5" fill="#758BFD"/>
<path d="M14.2728 20.5121L19.5616 17.5289M11.375 9.18865L17.1064 18.9138M13.7599 7.45696C13.8468 7.60679 13.7904 7.80117 13.6338 7.89113L8.88403 10.6195C8.72742 10.7095 8.52999 10.661 8.44305 10.5111C6.48291 7.13323 7.75827 5.84058 8.8976 5.18611C10.0369 4.53164 11.7965 4.07342 13.7599 7.45696ZM13.9173 7.72825L19.4807 17.3156C19.5484 17.4323 19.5813 17.5661 19.5741 17.7007C19.4824 19.3998 19.248 20.8887 19.0925 21.7343C19.0187 22.1358 18.6122 22.3714 18.2249 22.2368C17.4072 21.9527 15.9858 21.4159 14.4526 20.6428C14.3316 20.5818 14.2315 20.4864 14.1637 20.3696L8.60047 10.7824L13.9173 7.72825Z" stroke="#F1F2F6" stroke-linecap="round"/>
</svg>
