<?xml version="1.0" standalone="no"?>
<!DOCTYPE svg PUBLIC "-//W3C//DTD SVG 20010904//EN"
 "http://www.w3.org/TR/2001/REC-SVG-20010904/DTD/svg10.dtd">
<svg version="1.0" xmlns="http://www.w3.org/2000/svg"
 width="225.000000pt" height="225.000000pt" viewBox="0 0 225.000000 225.000000"
 preserveAspectRatio="xMidYMid meet">

<g transform="translate(0.000000,225.000000) scale(0.100000,-0.100000)"
fill="#000000" stroke="none">
<path d="M1066 2240 c-43 -13 -90 -49 -117 -88 -33 -49 -39 -144 -11 -199 26
-50 84 -102 123 -110 27 -5 29 -9 29 -48 0 -34 -5 -46 -24 -58 -13 -9 -29 -32
-36 -52 l-12 -35 -189 0 c-110 0 -198 4 -209 10 -11 6 -33 31 -51 56 -36 53
-78 74 -147 74 -53 0 -77 -16 -66 -44 4 -11 19 -16 51 -16 57 0 93 -20 117
-64 38 -71 57 -76 290 -76 l206 0 0 -354 c0 -195 3 -361 6 -370 5 -13 48 -23
56 -13 1 1 5 189 8 417 l5 415 30 0 30 0 3 -513 2 -512 -34 0 c-34 0 -35 1
-38 46 -6 90 -68 84 -68 -6 0 -30 -6 -52 -15 -60 -12 -10 -15 -44 -15 -186 l0
-174 -56 0 c-89 0 -139 -17 -179 -61 -42 -46 -47 -65 -43 -149 l3 -65 410 0
410 0 3 65 c4 84 -1 103 -43 149 -40 44 -90 61 -179 61 l-56 0 0 174 c0 142
-3 176 -15 186 -13 11 -15 77 -15 481 l0 469 206 0 c233 0 252 5 290 76 24 44
60 64 117 64 32 0 47 5 51 16 11 28 -13 44 -66 44 -69 0 -111 -21 -147 -74
-18 -25 -40 -50 -51 -56 -11 -6 -99 -10 -209 -10 l-189 0 -12 35 c-7 20 -23
43 -36 52 -19 12 -24 24 -24 58 0 39 2 43 29 48 38 8 97 60 122 108 22 45 25
125 5 172 -16 38 -59 83 -99 103 -36 19 -113 26 -151 14z m24 -123 l0 -64 -46
-33 c-37 -26 -48 -30 -55 -19 -23 37 1 111 50 152 18 15 37 27 42 27 5 0 9
-28 9 -63z m121 36 c49 -41 73 -115 50 -152 -7 -11 -18 -7 -55 19 l-46 33 0
64 c0 35 4 63 9 63 5 0 24 -12 42 -27z m-121 -218 c0 -33 -1 -34 -25 -23 -31
14 -31 22 -3 42 29 21 28 21 28 -19z m117 -2 c2 -5 -8 -15 -22 -21 -24 -11
-25 -10 -25 24 0 35 1 36 22 22 12 -8 23 -19 25 -25z m-7 -1493 l0 -160 -75 0
-75 0 0 160 0 160 75 0 75 0 0 -160z m240 -257 c23 -20 33 -40 37 -70 l6 -43
-358 0 -358 0 6 43 c4 30 14 50 37 70 l30 27 285 0 285 0 30 -27z"/>
<path d="M395 1638 c-3 -7 -77 -229 -165 -493 l-160 -479 28 -85 c33 -104 70
-146 135 -156 24 -4 124 -5 223 -3 179 3 181 3 217 31 30 23 40 42 67 125 l31
97 -163 485 c-147 437 -165 485 -186 488 -12 2 -24 -3 -27 -10z m159 -525 c71
-214 131 -394 134 -400 3 -10 -54 -13 -268 -13 -214 0 -271 3 -268 13 3 6 63
186 134 400 71 213 131 387 134 387 3 0 63 -174 134 -387z m136 -488 c0 -22
-46 -117 -60 -125 -29 -15 -402 -13 -423 3 -9 6 -25 38 -36 70 l-20 57 270 0
c148 0 269 -2 269 -5z"/>
<path d="M1802 1633 c-5 -10 -80 -231 -166 -490 l-158 -473 32 -95 c27 -80 38
-100 68 -123 35 -27 37 -27 216 -30 99 -2 199 -1 223 3 65 10 102 52 135 156
l28 85 -163 489 c-143 427 -166 490 -185 493 -12 2 -24 -4 -30 -15z m162 -520
c71 -214 131 -394 134 -400 3 -9 -6 -13 -26 -13 -42 0 -62 -9 -62 -29 0 -26
21 -41 56 -41 l33 0 -20 -57 c-11 -32 -27 -64 -36 -71 -21 -15 -394 -17 -423
-2 -14 8 -60 103 -60 125 0 3 79 6 176 7 150 3 178 5 187 19 6 9 7 24 4 33 -6
14 -29 16 -188 16 -141 0 -180 3 -177 13 3 6 63 186 134 400 71 213 131 387
134 387 3 0 63 -174 134 -387z"/>
</g>
</svg>
