<svg width="25" height="25" viewBox="0 0 25 25" fill="none" xmlns="http://www.w3.org/2000/svg">
<mask id="mask0_1257_1644" style="mask-type:alpha" maskUnits="userSpaceOnUse" x="0" y="0" width="25" height="25">
<rect x="0.046875" y="0.227539" width="24" height="24" fill="#D9D9D9"/>
</mask>
<g mask="url(#mask0_1257_1644)">
<path d="M9.29707 22.2275L8.89707 19.0275C8.6804 18.9442 8.47624 18.8442 8.28457 18.7275C8.0929 18.6109 7.9054 18.4859 7.72207 18.3525L4.74707 19.6025L1.99707 14.8525L4.57207 12.9025C4.5554 12.7859 4.54707 12.6734 4.54707 12.565V11.89C4.54707 11.7817 4.5554 11.6692 4.57207 11.5525L1.99707 9.60254L4.74707 4.85254L7.72207 6.10254C7.9054 5.96921 8.09707 5.84421 8.29707 5.72754C8.49707 5.61087 8.69707 5.51087 8.89707 5.42754L9.29707 2.22754H14.7971L15.1971 5.42754C15.4137 5.51087 15.6179 5.61087 15.8096 5.72754C16.0012 5.84421 16.1887 5.96921 16.3721 6.10254L19.3471 4.85254L22.0971 9.60254L19.5221 11.5525C19.5387 11.6692 19.5471 11.7817 19.5471 11.89V12.565C19.5471 12.6734 19.5304 12.7859 19.4971 12.9025L22.0721 14.8525L19.3221 19.6025L16.3721 18.3525C16.1887 18.4859 15.9971 18.6109 15.7971 18.7275C15.5971 18.8442 15.3971 18.9442 15.1971 19.0275L14.7971 22.2275H9.29707ZM11.0471 20.2275H13.0221L13.3721 17.5775C13.8887 17.4442 14.3679 17.2484 14.8096 16.99C15.2512 16.7317 15.6554 16.4192 16.0221 16.0525L18.4971 17.0775L19.4721 15.3775L17.3221 13.7525C17.4054 13.5192 17.4637 13.2734 17.4971 13.015C17.5304 12.7567 17.5471 12.4942 17.5471 12.2275C17.5471 11.9609 17.5304 11.6984 17.4971 11.44C17.4637 11.1817 17.4054 10.9359 17.3221 10.7025L19.4721 9.07754L18.4971 7.37754L16.0221 8.42754C15.6554 8.04421 15.2512 7.72337 14.8096 7.46504C14.3679 7.20671 13.8887 7.01087 13.3721 6.87754L13.0471 4.22754H11.0721L10.7221 6.87754C10.2054 7.01087 9.72624 7.20671 9.28457 7.46504C8.8429 7.72337 8.43874 8.03587 8.07207 8.40254L5.59707 7.37754L4.62207 9.07754L6.77207 10.6775C6.68874 10.9275 6.6304 11.1775 6.59707 11.4275C6.56374 11.6775 6.54707 11.9442 6.54707 12.2275C6.54707 12.4942 6.56374 12.7525 6.59707 13.0025C6.6304 13.2525 6.68874 13.5025 6.77207 13.7525L4.62207 15.3775L5.59707 17.0775L8.07207 16.0275C8.43874 16.4109 8.8429 16.7317 9.28457 16.99C9.72624 17.2484 10.2054 17.4442 10.7221 17.5775L11.0471 20.2275ZM12.0971 15.7275C13.0637 15.7275 13.8887 15.3859 14.5721 14.7025C15.2554 14.0192 15.5971 13.1942 15.5971 12.2275C15.5971 11.2609 15.2554 10.4359 14.5721 9.75254C13.8887 9.06921 13.0637 8.72754 12.0971 8.72754C11.1137 8.72754 10.2846 9.06921 9.60957 9.75254C8.93457 10.4359 8.59707 11.2609 8.59707 12.2275C8.59707 13.1942 8.93457 14.0192 9.60957 14.7025C10.2846 15.3859 11.1137 15.7275 12.0971 15.7275Z" fill="#1C1B1F"/>
</g>
</svg>
