<svg width="28" height="28" viewBox="0 0 28 28" fill="none" xmlns="http://www.w3.org/2000/svg">
<path d="M6.66667 25L13.6667 18L20.6667 25H6.66667ZM2 20.3333V6.33333C2 5.69167 2.22847 5.14236 2.68542 4.68542C3.14236 4.22847 3.69167 4 4.33333 4H23C23.6417 4 24.191 4.22847 24.6479 4.68542C25.1049 5.14236 25.3333 5.69167 25.3333 6.33333V20.3333C25.3333 20.975 25.1049 21.5243 24.6479 21.9813C24.191 22.4382 23.6417 22.6667 23 22.6667H19.5V20.3333H23V6.33333H4.33333V20.3333H7.83333V22.6667H4.33333C3.69167 22.6667 3.14236 22.4382 2.68542 21.9813C2.22847 21.5243 2 20.975 2 20.3333Z" fill="#1C1B1F"/>
</svg>
