<svg width="61" height="68" viewBox="0 0 61 68" fill="none" xmlns="http://www.w3.org/2000/svg">
<path d="M39.7308 12.7505C43.5543 12.7505 46.6538 9.89625 46.6538 6.37525C46.6538 2.85425 43.5543 0 39.7308 0C35.9072 0 32.8077 2.85425 32.8077 6.37525C32.8077 9.89625 35.9072 12.7505 39.7308 12.7505ZM16.8976 42.1656L14.763 46.7505H5.11538C2.56683 46.7505 0.5 48.6538 0.5 51.0007C0.5 53.3476 2.56683 55.2508 5.11538 55.2508H16.2861C19.0625 55.2508 21.562 53.7314 22.6481 51.3872L23.9159 48.6617L22.3769 47.825C19.8788 46.4663 18.0413 44.4554 16.8976 42.1656ZM55.8846 29.7498H49.5341L45.7755 22.6773C43.9726 19.2838 40.6625 16.8028 36.8649 15.9116L26.613 13.1038C22.5312 12.2006 18.2808 13.0307 14.9534 15.3803L9.23173 19.4193C7.20817 20.8471 6.82452 23.514 8.37788 25.3775C9.93125 27.2409 12.826 27.5902 14.8481 26.1638L20.5726 22.1248C21.6788 21.3425 23.088 21.0622 24.2173 21.3093L26.3375 21.8897L20.9346 33.4966C19.1144 37.4121 20.7457 41.9983 24.7279 44.1632L36.9846 50.8267L33.0226 62.4788C32.2611 64.7181 33.6154 67.1022 36.0471 67.8034C36.5072 67.9363 36.9716 68 37.4288 68C39.3918 68 41.212 66.8352 41.8308 65.0182L46.3942 51.5957C47.2466 48.8371 45.9774 45.8739 43.2731 44.3717L34.4404 39.5717L38.9563 29.1747L41.8798 34.6774C43.0337 36.8476 45.474 38.2488 48.0976 38.2488H55.8846C58.4332 38.2488 60.5 36.3456 60.5 33.9987C60.5 31.6518 58.4332 29.7498 55.8846 29.7498Z" fill="#27187E"/>
</svg>
