<svg width="62" height="62" viewBox="0 0 62 62" fill="none" xmlns="http://www.w3.org/2000/svg">
<g clip-path="url(#clip0_868_3017)">
<rect width="62" height="62" rx="8" fill="#DC9497"/>
<path d="M23.2917 47.9583L27.6083 26.2208L24.8333 27.3V32.5417H21.75V25.2958L29.5354 21.9812C29.8951 21.8271 30.2741 21.7372 30.6724 21.7115C31.0707 21.6858 31.4497 21.7372 31.8094 21.8656C32.1691 21.9941 32.5095 22.174 32.8307 22.4052C33.1519 22.6365 33.4153 22.9319 33.6208 23.2917L35.1625 25.7583C35.8306 26.8375 36.7363 27.724 37.8797 28.4177C39.0231 29.1115 40.3271 29.4583 41.7917 29.4583V32.5417C39.9931 32.5417 38.3872 32.1691 36.974 31.424C35.5608 30.6788 34.3531 29.7281 33.351 28.5719L32.3875 33.3125L35.625 36.3958V47.9583H32.5417V37.9375L29.3042 35.4708L26.5292 47.9583H23.2917ZM33.3125 20.9792C32.4646 20.9792 31.7387 20.6773 31.1349 20.0734C30.5311 19.4696 30.2292 18.7437 30.2292 17.8958C30.2292 17.0479 30.5311 16.322 31.1349 15.7182C31.7387 15.1144 32.4646 14.8125 33.3125 14.8125C34.1604 14.8125 34.8863 15.1144 35.4901 15.7182C36.0939 16.322 36.3958 17.0479 36.3958 17.8958C36.3958 18.7437 36.0939 19.4696 35.4901 20.0734C34.8863 20.6773 34.1604 20.9792 33.3125 20.9792Z" fill="white"/>
<path d="M34.3333 0C34.3333 4.46494 33.4539 8.88617 31.7452 13.0112C30.0366 17.1363 27.5321 20.8844 24.3749 24.0416C21.2178 27.1988 17.4696 29.7032 13.3445 31.4119C9.21948 33.1206 4.79826 34 0.333312 34L0.333313 0H34.3333Z" fill="white" fill-opacity="0.2"/>
</g>
<defs>
<clipPath id="clip0_868_3017">
<rect width="62" height="62" rx="8" fill="white"/>
</clipPath>
</defs>
</svg>
